<svg width="29" height="29" viewBox="0 0 29 29" fill="none" xmlns="http://www.w3.org/2000/svg">
<g clip-path="url(#clip0)">
<path d="M28.9999 5.50819C27.9214 5.98125 26.7723 6.29481 25.5743 6.44706C26.8068 5.71119 27.7474 4.55481 28.1897 3.161C27.0406 3.84612 25.7718 4.33006 24.4197 4.60013C23.3286 3.43831 21.7734 2.71875 20.0769 2.71875C16.7854 2.71875 14.1356 5.39037 14.1356 8.66556C14.1356 9.13681 14.1754 9.58994 14.2733 10.0213C9.33063 9.78025 4.95707 7.41131 2.019 3.80263C1.50607 4.69256 1.20519 5.71119 1.20519 6.80775C1.20519 8.86675 2.2655 10.6919 3.846 11.7486C2.89082 11.7305 1.95375 11.4532 1.15988 11.0164C1.15988 11.0345 1.15988 11.0581 1.15988 11.0816C1.15988 13.9707 3.22069 16.3705 5.92313 16.9233C5.43919 17.0556 4.91175 17.1191 4.36438 17.1191C3.98375 17.1191 3.5995 17.0973 3.23882 17.0176C4.00913 19.372 6.195 21.1029 8.79413 21.1591C6.77138 22.7414 4.20307 23.6948 1.42269 23.6948C0.935128 23.6948 0.467503 23.6731 -0.00012207 23.6132C2.63344 25.3116 5.75457 26.2812 9.12038 26.2812C20.0606 26.2812 26.0419 17.2187 26.0419 9.36337C26.0419 9.10056 26.0328 8.84681 26.0201 8.59487C27.2001 7.7575 28.1915 6.71169 28.9999 5.50819Z" fill="#03A9F4"/>
</g>
<defs>
<clipPath id="clip0">
<rect width="29" height="29" fill="white"/>
</clipPath>
</defs>
</svg>
