<svg width="28" height="28" viewBox="0 0 28 28" fill="none" xmlns="http://www.w3.org/2000/svg">
<g clip-path="url(#clip0)">
<path d="M6.2615 8.75H0V28H6.2615V8.75Z" fill="#1976D2"/>
<path d="M23.317 8.97575C23.2505 8.95475 23.1875 8.932 23.1175 8.91275C23.0335 8.8935 22.9495 8.87775 22.8638 8.86375C22.5313 8.79725 22.1673 8.75 21.7403 8.75C18.0898 8.75 15.7745 11.4048 15.0115 12.4303V8.75H8.75V28H15.0115V17.5C15.0115 17.5 19.7435 10.9095 21.7403 15.75C21.7403 20.0708 21.7403 28 21.7403 28H28V15.0097C28 12.1012 26.0068 9.6775 23.317 8.97575Z" fill="#1976D2"/>
<path d="M3.06238 6.125C4.75375 6.125 6.12488 4.75387 6.12488 3.0625C6.12488 1.37113 4.75375 0 3.06238 0C1.37101 0 -0.00012207 1.37113 -0.00012207 3.0625C-0.00012207 4.75387 1.37101 6.125 3.06238 6.125Z" fill="#1976D2"/>
</g>
<defs>
<clipPath id="clip0">
<rect width="28" height="28" fill="white"/>
</clipPath>
</defs>
</svg>
