<svg width="27" height="27" viewBox="0 0 27 27" fill="none" xmlns="http://www.w3.org/2000/svg">
<g clip-path="url(#clip0)">
<path d="M12.389 6.81691C12.8986 7.51728 13.1535 8.35266 13.1535 9.3298C13.1535 10.3339 12.8986 11.144 12.3822 11.7549C12.0919 12.0942 11.6683 12.4081 11.108 12.6899C11.9586 12.997 12.5999 13.4814 13.037 14.1429C13.469 14.8045 13.6867 15.6095 13.6867 16.5546C13.6867 17.53 13.4387 18.4059 12.9425 19.1789C12.6286 19.6902 12.2337 20.1239 11.7612 20.4733C11.2295 20.8749 10.6017 21.15 9.87606 21.3002C9.15038 21.4487 8.36562 21.5213 7.51843 21.5213H0V5.06177H8.06354C10.0988 5.09215 11.5384 5.67607 12.389 6.81691ZM3.32634 7.92063V11.5524H7.38342C8.10573 11.5524 8.69471 11.4157 9.14869 11.144C9.59929 10.8723 9.82712 10.3896 9.82712 9.6994C9.82712 8.92983 9.52841 8.42523 8.93098 8.17715C8.41457 8.0067 7.75639 7.92063 6.95813 7.92063H3.32634ZM3.32634 14.2763V18.6658H7.37836C8.10235 18.6658 8.66771 18.5696 9.06937 18.3755C9.8018 18.0144 10.1663 17.3326 10.1663 16.32C10.1663 15.461 9.81362 14.8737 9.10481 14.553C8.70653 14.3758 8.14961 14.2813 7.43405 14.2763H3.32634ZM23.7738 9.59814C24.6361 9.97786 25.345 10.5787 25.9036 11.3988C26.4132 12.1228 26.7406 12.9616 26.8891 13.9151C26.9769 14.472 27.0107 15.2804 26.9972 16.3318H18.0071C18.0611 17.552 18.4864 18.4093 19.2998 18.8987C19.7926 19.2042 20.3833 19.3578 21.0803 19.3578C21.8127 19.3578 22.4102 19.1721 22.8692 18.8008C23.1223 18.5983 23.3434 18.3199 23.5341 17.9638H26.8284C26.7406 18.6844 26.3407 19.4185 25.6335 20.1644C24.5281 21.3458 22.9806 21.9382 20.9908 21.9382C19.3471 21.9382 17.8991 21.4403 16.6452 20.4412C15.3862 19.4438 14.7601 17.8186 14.7601 15.569C14.7601 13.4595 15.3271 11.841 16.4595 10.7154C17.5953 9.59308 19.0636 9.02772 20.871 9.02772C21.9477 9.02603 22.9148 9.21673 23.7738 9.59814ZM18.9488 12.3473C18.4931 12.8114 18.2062 13.4392 18.0881 14.2307H23.6489C23.5898 13.3852 23.3012 12.7456 22.7899 12.3051C22.2718 11.868 21.6355 11.6503 20.8744 11.6503C20.0491 11.652 19.4045 11.8849 18.9488 12.3473ZM17.2544 7.87844H24.4049V5.82964H17.2544V7.87844Z" fill="#1976D2"/>
</g>
<defs>
<clipPath id="clip0">
<rect width="27" height="27" fill="white"/>
</clipPath>
</defs>
</svg>
