<svg width="150" height="150" viewBox="0 0 150 150" fill="none" xmlns="http://www.w3.org/2000/svg">
<circle cx="75" cy="75" r="75" fill="black"/>
<path fill-rule="evenodd" clip-rule="evenodd" d="M29.9785 75.6547C34.6656 70.9772 42.2651 70.9772 46.9522 75.6547C42.2651 80.3325 34.6656 80.3325 29.9785 75.6547Z" fill="#FC2B93"/>
<path fill-rule="evenodd" clip-rule="evenodd" d="M107.11 78.0733C106.933 79.4414 106.667 80.7802 106.317 82.0856C102.792 95.222 90.7828 104.893 76.5108 104.893C74.8614 104.893 73.2431 104.764 71.6655 104.515L64.3497 102.409C60.7868 100.884 57.5689 98.7058 54.8492 96.0284V96.0266C49.1755 90.4453 45.6587 82.6841 45.6587 74.1032H103.623C105.747 74.1032 107.38 75.9704 107.11 78.0733Z" fill="#FC2B93"/>
<path fill-rule="evenodd" clip-rule="evenodd" d="M89.7685 80.3873C89.4412 80.3873 89.1193 80.2547 88.8884 80.0227C88.8303 79.9664 88.779 79.9018 88.7325 79.8339C88.6875 79.7676 88.6495 79.6947 88.6179 79.6201C88.588 79.5456 88.5631 79.466 88.5482 79.3882C88.5316 79.307 88.5234 79.2258 88.5234 79.1446C88.5234 79.0634 88.5317 78.9822 88.5482 78.9027C88.5631 78.8231 88.588 78.7436 88.6179 78.6691C88.6495 78.5945 88.6876 78.5216 88.7325 78.4553C88.779 78.3874 88.8304 78.3228 88.8884 78.2664C89.1193 78.0345 89.4412 77.9019 89.7685 77.9019C90.097 77.9019 90.4176 78.0345 90.6484 78.2664C90.7065 78.3228 90.758 78.3874 90.8043 78.4553C90.8493 78.5216 90.8873 78.5945 90.9189 78.6691C90.9487 78.7436 90.9736 78.8231 90.9886 78.9027C91.0052 78.9822 91.0135 79.0634 91.0135 79.1446C91.0135 79.2258 91.005 79.307 90.9886 79.3882C90.9736 79.466 90.9487 79.5456 90.9189 79.6201C90.8873 79.6947 90.8491 79.7676 90.8043 79.8339C90.758 79.9018 90.7064 79.9664 90.6484 80.0227C90.592 80.0807 90.5289 80.1321 90.4591 80.1785C90.3927 80.2232 90.3195 80.2613 90.245 80.2928C90.1703 80.3226 90.0904 80.3475 90.0125 80.3624C89.931 80.3788 89.8497 80.3873 89.7685 80.3873Z" fill="#4D4D4D"/>
<path fill-rule="evenodd" clip-rule="evenodd" d="M46.9523 58.7154C51.6394 63.393 51.6394 70.9771 46.9523 75.6547C42.2652 70.9771 42.2652 63.3931 46.9523 58.7154Z" fill="#FC2B93"/>
<path fill-rule="evenodd" clip-rule="evenodd" d="M76.5112 104.893C74.8617 104.893 73.2435 104.764 71.6659 104.515L64.3501 102.409C60.7872 100.884 57.5693 98.7058 54.8496 96.0284L60.5989 93.0877C74.7472 85.8567 90.4177 82.0838 106.315 82.0838C102.793 95.222 90.7831 104.893 76.5112 104.893Z" fill="#FF84C1"/>
<path fill-rule="evenodd" clip-rule="evenodd" d="M60.5849 89.0681C60.5849 95.6925 55.2038 101.063 48.5659 101.063C48.5659 97.1828 50.4118 93.7333 53.2751 91.5409" fill="#FC2B93"/>
<mask id="mask0" mask-type="alpha" maskUnits="userSpaceOnUse" x="66" y="55" width="12" height="17">
<path d="M77.694 71.9282H66.1289V55.2672H77.694V71.9282Z" fill="white"/>
</mask>
<g mask="url(#mask0)">
<path fill-rule="evenodd" clip-rule="evenodd" d="M71.5214 66.8011C68.2153 66.2507 66.1289 64.1156 66.1289 61.0423C66.1289 57.8517 68.7198 55.2672 71.9131 55.2672C75.1069 55.2672 77.694 57.8517 77.694 61.0423C77.694 61.2251 77.6859 61.4148 77.6682 61.5928V71.9282C77.1916 69.0237 73.4961 67.1339 71.5214 66.8011Z" fill="#7CE0E6"/>
</g>
<path fill-rule="evenodd" clip-rule="evenodd" d="M73.4209 50.3578C71.1323 49.9749 69.689 48.4961 69.689 46.3642C69.689 44.1615 71.4815 42.3706 73.6912 42.3706C75.9013 42.3706 77.6937 44.1615 77.6937 46.3642C77.6937 46.4969 77.6888 46.6295 77.6762 46.7519V53.9035C77.3461 51.895 74.7869 50.586 73.4209 50.3578Z" fill="url(#paint0_linear)"/>
<mask id="mask1" mask-type="alpha" maskUnits="userSpaceOnUse" x="79" y="47" width="16" height="22">
<path d="M94.823 47.0137V68.6141H79.8335V47.0137H94.823Z" fill="white"/>
</mask>
<g mask="url(#mask1)">
<path fill-rule="evenodd" clip-rule="evenodd" d="M87.8287 61.9698C92.1177 61.246 94.823 58.4847 94.823 54.4947C94.823 50.3649 91.4663 47.0137 87.3257 47.0137C83.1855 47.0137 79.8335 50.3649 79.8335 54.4947C79.8335 54.7355 79.8431 54.9822 79.864 55.2183V68.6141C80.4785 64.8486 85.2766 62.4003 87.8287 61.9698Z" fill="url(#paint1_linear)"/>
</g>
<path fill-rule="evenodd" clip-rule="evenodd" d="M79.2974 33H79.2952H79.2908H79.2856C77.4317 33.007 75.9341 34.5081 75.9341 36.3595C75.9341 39.1009 78.7335 40.253 79.2856 42.3732C79.2856 42.38 79.2893 42.3869 79.2908 42.3939C79.2916 42.3869 79.2974 42.38 79.2974 42.3732C79.8466 40.253 82.6482 39.1009 82.6482 36.3595C82.6482 34.5081 81.1504 33.007 79.2974 33Z" fill="#7CE0E6"/>
<defs>
<linearGradient id="paint0_linear" x1="77.6937" y1="42.3706" x2="67.8196" y2="50.2528" gradientUnits="userSpaceOnUse">
<stop stop-color="#65F8D7"/>
<stop offset="0.826595" stop-color="#4DE0BF"/>
<stop offset="1" stop-color="#48DBBA"/>
</linearGradient>
<linearGradient id="paint1_linear" x1="94.823" y1="47.0137" x2="76.3301" y2="61.7731" gradientUnits="userSpaceOnUse">
<stop stop-color="#65F8D7"/>
<stop offset="0.826595" stop-color="#4DE0BF"/>
<stop offset="1" stop-color="#48DBBA"/>
</linearGradient>
</defs>
</svg>
